#!OML:ASF H:\GeneralSubjects\Female5\Project 1\Capture day 1\Session 1\Female5.ASF
:FULLY-SPECIFIED
:DEGREES
839
root 2.40292 16.1802 -11.4912 -327.266 -88.9154 -26.1285
lowerback 15.0063 1.43049 -5.79503
upperback -13.0915 1.07575 5.48406
thorax -24.6212 2.09204 9.72489
lowerneck -6.69066 10.5168 6.76758
upperneck 42.636 17.3954 -11.3834
head 19.4775 5.91159 -3.84927
rclavicle 1.86858e-014 1.59028e-015
rhumerus -57.9144 30.6219 -91.8643
rradius 39.2191
rwrist -14.0816
rhand -24.7473 -21.7525
rfingers 7.12502
rthumb 1.75566 -51.7251
lclavicle 1.86858e-014 1.59028e-015
lhumerus -62.6825 5.41364 76.5634
lradius 45.2787
lwrist -0.691461
lhand -26.4534 25.6535
lfingers 7.12502
lthumb 0.107853 55.6332
rfemur -22.5617 18.4507 20.0526
rtibia 24.2592
rfoot -9.97864 4.7933
rtoes -39.3378
lfemur -13.5123 -20.3516 -30.6186
ltibia 12.1802
lfoot -17.2355 -3.20841
ltoes -14.4221
840
root 2.29976 16.191 -11.5366 -337.366 -88.0969 -15.8311
lowerback 14.9906 1.37706 -5.83014
upperback -13.1317 0.99561 5.49795
thorax -24.651 2.07229 9.79585
lowerneck -6.67913 10.7517 6.96364
upperneck 42.3236 17.7698 -11.4014
head 19.3613 6.12955 -3.78154
rclavicle 1.51076e-014 -2.22639e-014
rhumerus -58.3397 30.6778 -92.0258
rradius 39.0395
rwrist -13.5728
rhand -24.9526 -21.0253
rfingers 7.12502
rthumb 1.55736 -50.9994
lclavicle 1.51076e-014 -2.22639e-014
lhumerus -62.5486 5.55568 76.451
lradius 45.4489
lwrist -0.752134
lhand -24.9408 25.9604
lfingers 7.12502
lthumb 1.56873 55.9343
rfemur -23.8794 21.1558 18.8662
rtibia 23.0441
rfoot -8.38825 6.28325
rtoes -36.4761
lfemur -13.5531 -20.3375 -30.5052
ltibia 12.4928
lfoot -16.3883 -3.91523
ltoes -13.9599
841
root 2.19489 16.1981 -11.5818 -340.464 -87.0732 -12.5872
lowerback 14.9357 1.32052 -5.71349
upperback -13.1623 0.95406 5.50708
thorax -24.6396 2.03662 9.75219
lowerneck -6.8113 10.8277 7.12856
upperneck 42.1085 17.9798 -11.6185
head 19.361 6.23621 -3.84625
rclavicle 1.70955e-014 4.77083e-015
rhumerus -58.8654 30.5603 -92.0759
rradius 39.0161
rwrist -13.3601
rhand -25.202 -20.6339
rfingers 7.12502
rthumb 1.31649 -50.6096
lclavicle 1.70955e-014 4.77083e-015
lhumerus -62.4155 5.45907 76.6197
lradius 45.5823
lwrist -0.45699
lhand -24.7216 25.6945
lfingers 7.12502
lthumb 1.78049 55.6668
rfemur -24.903 23.3763 17.8368
rtibia 22.0033
rfoot -7.08577 7.37062
rtoes -35.4204
lfemur -13.4275 -20.3159 -30.3473
ltibia 12.594
lfoot -15.4044 -4.51844
ltoes -13.4364
842
root 2.08043 16.2009 -11.6246 -344.567 -85.8709 -8.44517
lowerback 14.8189 1.16686 -5.75318
upperback -13.1037 0.755932 5.59644
thorax -24.4245 1.96141 9.94514
lowerneck -7.08052 10.9222 7.06709
upperneck 41.9118 18.2628 -11.8167
head 19.3899 6.32864 -3.84202
rclavicle -1.98785e-015 -9.54166e-015
rhumerus -59.0882 30.574 -91.8892
rradius 38.8343
rwrist -13.27
rhand -25.206 -20.7718
rfingers 7.12502
rthumb 1.31261 -50.7475
lclavicle -1.98785e-015 -9.54166e-015
lhumerus -62.2363 5.74358 76.8607
lradius 45.5982
lwrist -0.162275
lhand -25.8322 24.9696
lfingers 7.12502
lthumb 0.707857 54.9482
rfemur -25.2513 24.9858 16.8581
rtibia 20.6489
rfoot -5.40004 8.24342
rtoes -34.768
lfemur -13.0257 -20.6113 -30.4563
ltibia 12.6128
lfoot -14.5398 -5.09157
ltoes -13.1037
843
root 1.95993 16.2008 -11.6636 -348.728 -84.4278 -4.33753
lowerback 14.7444 0.963312 -5.70768
upperback -13.0452 0.487314 5.55128
thorax -24.2063 1.82149 9.94091
lowerneck -7.25058 10.9773 7.04755
upperneck 41.6778 18.4741 -12.0366
head 19.3637 6.40378 -3.87256
rclavicle -1.47101e-014 -3.18055e-015
rhumerus -59.2133 30.399 -91.6609
rradius 38.6036
rwrist -13.2981
rhand -25.1798 -20.9248
rfingers 7.12502
rthumb 1.33789 -50.9004
lclavicle -1.47101e-014 -3.18055e-015
lhumerus -62.1461 5.80688 77.0653
lradius 45.6928
lwrist 0.0206605
lhand -25.9961 25.013
lfingers 7.12502
lthumb 0.549514 54.9921
rfemur -24.9286 25.9146 15.9896
rtibia 19.0845
rfoot -3.14108 8.84071
rtoes -32.4113
lfemur -12.4963 -21.1686 -30.838
ltibia 12.7277
lfoot -13.6958 -5.75394
ltoes -12.3926
844
root 1.84322 16.2039 -11.7052 -352.081 -82.7918 -1.07818
lowerback 14.7417 0.81306 -5.56818
upperback -13.0465 0.278528 5.2965
thorax -24.1271 1.67127 9.60614
lowerneck -7.23181 10.8685 7.29922
upperneck 41.4833 18.3801 -12.3116
head 19.3054 6.40275 -4.05439
rclavicle 2.70347e-014 -3.97569e-014
rhumerus -59.6569 29.8855 -91.6391
rradius 38.4746
rwrist -13.2459
rhand -25.5889 -20.6447
rfingers 7.12502
rthumb 0.942835 -50.6223
lclavicle 2.70347e-014 -3.97569e-014
lhumerus -62.0626 5.42587 77.2829
lradius 45.7413
lwrist -0.0926984
lhand -25.344 25.4099
lfingers 7.12502
lthumb 1.1793 55.3864
rfemur -24.1758 26.2433 15.3398
rtibia 17.634
rfoot -0.647172 9.12191
rtoes -30.882
lfemur -11.9259 -21.7772 -31.3597
ltibia 12.8433
lfoot -12.7715 -6.36894
ltoes -11.6138
845
root 1.74 16.2138 -11.7616 -353.304 -81.0314 0.0956819
lowerback 14.8119 0.663422 -5.56044
upperback -13.054 0.0584638 5.1906
thorax -24.125 1.56779 9.54662
lowerneck -7.2879 10.7254 7.37335
upperneck 41.3259 18.2389 -12.4981
head 19.2376 6.35991 -4.17029
rclavicle -2.70347e-014 -1.90833e-014
rhumerus -60.185 29.6062 -91.6179
rradius 38.3331
rwrist -13.1177
rhand -25.8851 -20.341
rfingers 7.12502
rthumb 0.656745 -50.3197
lclavicle -2.70347e-014 -1.90833e-014
lhumerus -61.9525 5.38674 77.4977
lradius 45.6256
lwrist -0.562535
lhand -25.1036 25.3215
lfingers 7.12502
lthumb 1.41148 55.2966
rfemur -23.3831 26.528 15.0147
rtibia 16.4349
rfoot 1.77712 9.12429
rtoes -29.4174
lfemur -11.6156 -22.3185 -31.5062
ltibia 13.0772
lfoot -11.7304 -6.8642
ltoes -11.3586
846
root 1.64422 16.2253 -11.8282 -352.747 -79.3045 -0.444222
lowerback 14.8928 0.503378 -5.5993
upperback -13.042 -0.144983 5.33639
thorax -24.1234 1.51482 9.82314
lowerneck -7.29592 10.7936 7.1403
upperneck 41.0854 18.442 -12.5343
head 19.0919 6.43188 -4.0788
rclavicle -5.56597e-015 -9.70069e-014
rhumerus -60.6499 29.684 -91.4764
rradius 38.2621
rwrist -13.3197
rhand -25.6698 -20.4219
rfingers 7.12502
rthumb 0.864694 -50.3999
lclavicle -5.56597e-015 -9.70069e-014
lhumerus -61.9553 5.55031 77.8602
lradius 45.6341
lwrist -0.790843
lhand -25.1331 25.7387
lfingers 7.12502
lthumb 1.38303 55.7139
rfemur -22.6962 26.4075 15.2303
rtibia 16.5167
rfoot 2.37982 9.23561
rtoes -26.9885
lfemur -11.5889 -22.7833 -31.1741
ltibia 13.4437
lfoot -10.5699 -7.29672
ltoes -10.993
847
root 1.54856 16.2318 -11.8919 -352.053 -77.7515 -1.00103
lowerback 14.8508 0.422626 -5.57845
upperback -13.0618 -0.220218 5.47868
thorax -24.1098 1.50243 10.0138
lowerneck -7.418 10.867 6.92784
upperneck 40.878 18.6824 -12.6285
head 19.0238 6.50816 -4.00964
rclavicle 2.3059e-014 4.29375e-014
rhumerus -61.0998 29.5726 -91.2534
rradius 38.2286
rwrist -13.6802
rhand -25.2723 -20.6184
rfingers 7.12502
rthumb 1.24862 -50.5945
lclavicle 2.3059e-014 4.29375e-014
lhumerus -61.9308 5.67646 78.2624
lradius 45.5903
lwrist -0.941425
lhand -25.0178 26.6026
lfingers 7.12502
lthumb 1.4944 56.5771
rfemur -22.212 25.7146 15.6115
rtibia 16.9789
rfoot 2.28918 10.3744
rtoes -25.2462
lfemur -11.7229 -23.3403 -30.8086
ltibia 13.8678
lfoot -9.58405 -7.82348
ltoes -10.2298
